<?xml version="1.0" encoding="utf-8"?>
<!-- Generator: Adobe Illustrator 21.1.0, SVG Export Plug-In . SVG Version: 6.00 Build 0)  -->
<svg version="1.1" id="Layer_1" xmlns="http://www.w3.org/2000/svg" xmlns:xlink="http://www.w3.org/1999/xlink" x="0px" y="0px"
	 viewBox="0 0 659 562" style="enable-background:new 0 0 659 562;" xml:space="preserve">
<style type="text/css">
	.st0{fill:#DD0000;}
	.st1{fill:#2B2C2D;}
	.st2{font-family:'Sansation-Bold';}
	.st3{font-size:208.6075px;}
</style>
<g>
	<path class="st0" d="M613.5,19c-4.4-7.7-11.5-11.4-20.8-11.4c-57,0.2-114,0.6-171,0.1c-14.4-0.1-23,5.5-29.7,17.7
		c-14.4,26-29.6,51.6-44.5,77.4c-6.3,10.9-12.4,21.9-18.6,32.8c-0.5,0.8-1.2,1.5-2,2.1c-0.7-0.7-1.5-1.3-2-2.1
		c-6.3-10.9-12.4-21.9-18.6-32.8c-14.8-25.8-30.1-51.3-44.5-77.4c-6.7-12.2-15.3-17.8-29.7-17.7c-57,0.5-114,0.1-171-0.1
		C52,7.6,44.9,11.3,40.5,19c-4.5,7.8-3.8,16,1,24c6.6,10.9,12.9,22,19.3,33c17.6,30.5,35.1,61,52.7,91.5
		c18.5,32.1,37.1,64.1,55.7,96.2c16.6,28.7,33.1,57.3,49.8,85.9c4.6,7.8,11.5,11.8,20.6,11.4c8.9-0.4,15.2-4.9,19.4-12.7
		c4.3-7.8,8.8-15.6,13.3-23.3c14.8-25.6,29.6-51.3,44.4-76.9c3.3-5.8,6.8-11.5,10.5-17.9c3.8,6.4,7.2,12.1,10.5,17.9
		c14.8,25.6,29.6,51.3,44.4,76.9c4.5,7.8,9,15.5,13.3,23.3c4.2,7.8,10.5,12.3,19.4,12.7c9.1,0.4,16-3.5,20.6-11.4
		c16.6-28.6,33.2-57.3,49.8-85.9c18.6-32.1,37.1-64.1,55.7-96.2c17.6-30.5,35.1-61,52.7-91.5c6.4-11,12.6-22.1,19.3-33
		C617.4,35,618,26.8,613.5,19z M299.5,188.5c-16.7,29.3-33.6,58.5-50.5,87.7c-3.2,5.6-6.6,11-10.6,17.8
		c-46.5-80.7-92.5-160.6-138.9-241.1c2.6-0.2,4.4-0.5,6.2-0.5c38-0.1,76-0.1,114-0.3c4.2,0,6.6,1.3,8.7,4.9
		c20.3,35.5,40.7,70.8,61.1,106.2c3.4,5.9,7.2,11.6,10.1,17.6C300.6,182.9,300.7,186.5,299.5,188.5z M415.6,294
		c-4-6.7-7.4-12.2-10.6-17.8c-16.9-29.2-33.8-58.4-50.5-87.7c-1.1-2-1.1-5.6,0-7.7c3-6.1,6.7-11.8,10.1-17.6
		C385,127.8,405.4,92.4,425.7,57c2.1-3.6,4.5-4.9,8.7-4.9c38,0.2,76,0.2,114,0.3c1.8,0,3.5,0.3,6.2,0.5
		C508.1,133.4,462.1,213.3,415.6,294z"/>
</g>
<text transform="matrix(1 0 0 1 7 522.1533)"><tspan x="0" y="0" class="st1 st2 st3">wager</tspan><tspan x="582.7" y="0" class="st0 st2 st3">r</tspan></text>
</svg>
