<?xml version="1.0" encoding="UTF-8"?>
<svg width="1736px" height="620px" viewBox="0 0 1736 620" version="1.1" xmlns="http://www.w3.org/2000/svg" xmlns:xlink="http://www.w3.org/1999/xlink">
    <!-- Generator: Sketch 49 (51002) - http://www.bohemiancoding.com/sketch -->
    <title>Slice 4</title>
    <desc>Created with Sketch.</desc>
    <defs></defs>
    <g id="Page-1" stroke="none" stroke-width="1" fill="none" fill-rule="evenodd">
        <g id="Group" transform="translate(733.000000, 75.000000)" font-family="Helvetica" font-size="308.609985" font-weight="normal">
            <text id="wager" fill="#2B2C2D">
                <tspan x="0" y="302">wager</tspan>
            </text>
            <text id="r" fill="#DD0000">
                <tspan x="841" y="300">r</tspan>
            </text>
        </g>
        <path d="M648.016529,161.4 C643.616529,153.7 636.516529,150 627.216529,150 C570.216529,150.2 513.216529,150.6 456.216529,150.1 C441.816529,150 433.216529,155.6 426.516529,167.8 C412.116529,193.8 396.916529,219.4 382.016529,245.2 C375.716529,256.1 369.616529,267.1 363.416529,278 C362.916529,278.8 362.216529,279.5 361.416529,280.1 C360.716529,279.4 359.916529,278.8 359.416529,278 C353.116529,267.1 347.016529,256.1 340.816529,245.2 C326.016529,219.4 310.716529,193.9 296.316529,167.8 C289.616529,155.6 281.016529,150 266.616529,150.1 C209.616529,150.6 152.616529,150.2 95.6165289,150 C86.5165289,150 79.4165289,153.7 75.0165289,161.4 C70.5165289,169.2 71.2165289,177.4 76.0165289,185.4 C82.6165289,196.3 88.9165289,207.4 95.3165289,218.4 C112.916529,248.9 130.416529,279.4 148.016529,309.9 C166.516529,342 185.116529,374 203.716529,406.1 C220.316529,434.8 236.816529,463.4 253.516529,492 C258.116529,499.8 265.016529,503.8 274.116529,503.4 C283.016529,503 289.316529,498.5 293.516529,490.7 C297.816529,482.9 302.316529,475.1 306.816529,467.4 C321.616529,441.8 336.416529,416.1 351.216529,390.5 C354.516529,384.7 358.016529,379 361.716529,372.6 C365.516529,379 368.916529,384.7 372.216529,390.5 C387.016529,416.1 401.816529,441.8 416.616529,467.4 C421.116529,475.2 425.616529,482.9 429.916529,490.7 C434.116529,498.5 440.416529,503 449.316529,503.4 C458.416529,503.8 465.316529,499.9 469.916529,492 C486.516529,463.4 503.116529,434.7 519.716529,406.1 C538.316529,374 556.816529,342 575.416529,309.9 C593.016529,279.4 610.516529,248.9 628.116529,218.4 C634.516529,207.4 640.716529,196.3 647.416529,185.4 C651.916529,177.4 652.516529,169.2 648.016529,161.4 Z M334.016529,330.9 C317.316529,360.2 300.416529,389.4 283.516529,418.6 C280.316529,424.2 276.916529,429.6 272.916529,436.4 C226.416529,355.7 180.416529,275.8 134.016529,195.3 C136.616529,195.1 138.416529,194.8 140.216529,194.8 C178.216529,194.7 216.216529,194.7 254.216529,194.5 C258.416529,194.5 260.816529,195.8 262.916529,199.4 C283.216529,234.9 303.616529,270.2 324.016529,305.6 C327.416529,311.5 331.216529,317.2 334.116529,323.2 C335.116529,325.3 335.216529,328.9 334.016529,330.9 Z M450.116529,436.4 C446.116529,429.7 442.716529,424.2 439.516529,418.6 C422.616529,389.4 405.716529,360.2 389.016529,330.9 C387.916529,328.9 387.916529,325.3 389.016529,323.2 C392.016529,317.1 395.716529,311.4 399.116529,305.6 C419.516529,270.2 439.916529,234.8 460.216529,199.4 C462.316529,195.8 464.716529,194.5 468.916529,194.5 C506.916529,194.7 544.916529,194.7 582.916529,194.8 C584.716529,194.8 586.416529,195.1 589.116529,195.3 C542.616529,275.8 496.616529,355.7 450.116529,436.4 Z" id="Shape" fill="#DD0000" fill-rule="nonzero"></path>
    </g>
</svg>