<?xml version="1.0" encoding="UTF-8"?>
<svg width="2491px" height="585px" viewBox="0 0 2491 585" version="1.1" xmlns="http://www.w3.org/2000/svg" xmlns:xlink="http://www.w3.org/1999/xlink">
    <!-- Generator: Sketch 49 (51002) - http://www.bohemiancoding.com/sketch -->
    <title>Slice 2</title>
    <desc>Created with Sketch.</desc>
    <defs></defs>
    <g id="Page-1" stroke="none" stroke-width="1" fill="none" fill-rule="evenodd">
        <g id="black_logo" transform="translate(37.000000, 36.000000)" fill-rule="nonzero">
            <circle id="Oval" fill="#1E1E1E" cx="256.81769" cy="256.00269" r="255.98779"></circle>
            <path d="M256.81769,41.592965 C138.41491,41.592965 42.40797,137.59991 42.40797,256.00269 C42.40797,374.40547 138.41491,470.41241 256.81769,470.41241 C375.22046,470.41241 471.22741,374.40547 471.22741,256.00269 C471.22741,137.59991 375.22046,41.592965 256.81769,41.592965 Z M256.81769,448.45061 C150.56769,448.45061 64.36977,362.25269 64.36977,256.00269 C64.36977,149.75269 150.56769,63.554772 256.81769,63.554772 C363.06769,63.554772 449.2656,149.75269 449.2656,256.00269 C449.2656,362.25269 363.06769,448.45061 256.81769,448.45061 Z" id="Shape" fill="#FFFFFF"></path>
            <g id="Group" transform="translate(154.604151, 125.099905)" fill="#FFFFFF">
                <path d="M195.138892,26.9097227 C194.097225,26.5625004 192.968753,26.2152782 191.927087,25.9548615 L167.100697,59.375001 C176.649308,61.4583344 185.937503,64.3229177 195.138892,67.6215289 L195.138892,26.9097227 Z M124.392363,116.927085 L94.1840293,157.725697 L124.305558,157.725697 C147.135419,157.725697 158.593753,166.753475 158.593753,184.895836 C158.593753,209.809031 140.017363,222.309031 102.777779,222.309031 C84.0277792,222.309031 66.4930567,220.659726 50.0868064,217.187504 L25.086806,250.954865 C48.1770841,257.89931 74.1319457,261.284727 102.777779,261.284727 C170.052086,261.284727 203.645837,235.850698 203.645837,184.895836 C203.645837,139.670141 177.256947,117.013891 124.392363,116.927085 Z" id="Shape"></path>
                <path d="M9.20138904,194.01042 C18.6631948,197.569448 28.6458338,200.347226 39.0625006,202.517364 L14.0625002,236.284726 C12.4131947,235.850698 10.7638891,235.329865 9.20138904,234.809032 L9.20138904,194.01042 Z" id="Shape"></path>
                <path d="M45.7465285,75.1736124 C45.7465285,93.3159738 55.642362,102.343752 75.2604179,102.343752 L113.454863,102.343752 L83.2465292,143.142363 L75.3472235,143.142363 C25.6076393,143.142363 0.781250013,120.486113 0.781250013,75.2604179 C0.781250013,25.4340282 36.1979173,0.520833342 106.944446,0.520833342 C132.899308,0.520833342 157.638892,4.16666674 180.989586,11.371528 L156.163197,44.7916674 C140.27778,41.2326396 123.87153,39.4965284 106.944446,39.4965284 C66.1458344,39.4965284 45.7465285,51.3888897 45.7465285,75.1736124 Z" id="Shape"></path>
            </g>
            <g id="Group" transform="translate(627.990100, 38.500000)" fill="#1E1E1E">
                <path d="M20.3,413.54 L20.3,341.62 C63.22,357.86 111.94,365.4 165.88,365.4 C231.42,365.4 264.48,343.36 264.48,299.28 C264.48,267.38 244.18,251.14 204.16,251.14 L136.88,251.14 C49.3,251.14 5.22,211.12 5.22,131.08 C5.22,44.08 67.86,0 192.56,0 C240.7,0 285.94,6.96 328.86,20.88 L328.86,92.8 C285.94,76.56 240.7,69.02 192.56,69.02 C120.64,69.02 84.68,89.9 84.68,131.66 C84.68,163.56 102.08,179.8 136.88,179.8 L204.16,179.8 C297.54,179.8 343.94,219.82 343.94,299.86 C343.94,389.76 284.2,435 165.88,435 C111.36,435 63.22,427.46 20.3,413.54 Z" id="Shape"></path>
                <polygon id="Shape" points="490.68 3.48 490.68 363.08 660.62 363.08 660.62 432.1 411.22 432.1 411.22 3.48"></polygon>
                <polygon id="Shape" points="779.52 431.52 697.74 431.52 879.86 2.9 965.12 2.9 1150.72 431.52 1065.46 431.52 1016.74 314.94 874.64 314.94 901.9 245.92 988.32 245.92 921.04 85.26"></polygon>
                <polygon id="Shape" points="1438.98 3.48 1438.98 72.5 1316.02 72.5 1316.02 432.1 1236.56 432.1 1236.56 72.5 1113.6 72.5 1113.6 3.48"></polygon>
                <polygon id="Shape" points="1777.12 3.48 1777.12 71.92 1562.52 71.92 1562.52 179.8 1766.68 179.8 1766.68 250.56 1561.36 250.56 1561.36 363.08 1781.18 363.08 1781.18 432.1 1483.64 432.1 1483.64 3.48"></polygon>
            </g>
        </g>
    </g>
</svg>