<?xml version="1.0" encoding="UTF-8"?>
<svg width="547px" height="547px" viewBox="0 0 547 547" version="1.1" xmlns="http://www.w3.org/2000/svg" xmlns:xlink="http://www.w3.org/1999/xlink">
    <!-- Generator: Sketch 49 (51002) - http://www.bohemiancoding.com/sketch -->
    <title>Slice</title>
    <desc>Created with Sketch.</desc>
    <defs>
        <radialGradient cx="50%" cy="50%" fx="50%" fy="50%" r="50%" id="radialGradient-1">
            <stop stop-color="#333333" offset="0%"></stop>
            <stop stop-color="#1A1A1A" offset="100%"></stop>
        </radialGradient>
    </defs>
    <g id="Page-1" stroke="none" stroke-width="1" fill="none" fill-rule="evenodd">
        <g id="icon_logo" transform="translate(16.000000, 17.000000)" fill-rule="nonzero">
            <circle id="Oval" fill="url(#radialGradient-1)" cx="256.02759" cy="256.00269" r="255.98779"></circle>
            <path d="M256.02759,41.592965 C137.62481,41.592965 41.617865,137.59991 41.617865,256.00269 C41.617865,374.40547 137.62481,470.41241 256.02759,470.41241 C374.43036,470.41241 470.43731,374.40547 470.43731,256.00269 C470.43731,137.59991 374.43036,41.592965 256.02759,41.592965 Z M256.02759,448.45061 C149.77759,448.45061 63.579667,362.25269 63.579667,256.00269 C63.579667,149.75269 149.77759,63.554772 256.02759,63.554772 C362.27759,63.554772 448.4755,149.75269 448.4755,256.00269 C448.4755,362.25269 362.27759,448.45061 256.02759,448.45061 Z" id="Shape" fill="#FFFFFF"></path>
            <g id="Group" transform="translate(153.814045, 125.099905)">
                <path d="M195.138892,26.9097227 C194.097225,26.5625004 192.968753,26.2152782 191.927087,25.9548615 L167.100697,59.375001 C176.649308,61.4583344 185.937503,64.3229177 195.138892,67.6215289 L195.138892,26.9097227 Z M124.392363,116.927085 L94.1840293,157.725697 L124.305558,157.725697 C147.135419,157.725697 158.593753,166.753475 158.593753,184.895836 C158.593753,209.809031 140.017363,222.309031 102.777779,222.309031 C84.0277792,222.309031 66.4930567,220.659726 50.0868064,217.187504 L25.086806,250.954865 C48.1770841,257.89931 74.1319457,261.284727 102.777779,261.284727 C170.052086,261.284727 203.645837,235.850698 203.645837,184.895836 C203.645837,139.670141 177.256947,117.013891 124.392363,116.927085 Z" id="Shape" fill="#7F7F7F"></path>
                <path d="M9.20138904,194.01042 C18.6631948,197.569448 28.6458338,200.347226 39.0625007,202.517364 L14.0625002,236.284726 C12.4131947,235.850698 10.7638891,235.329865 9.20138904,234.809032 L9.20138904,194.01042 Z" id="Shape" fill="#C4C4C4"></path>
                <path d="M45.7465285,75.1736124 C45.7465285,93.3159738 55.642362,102.343752 75.2604179,102.343752 L113.454863,102.343752 L83.2465292,143.142363 L75.3472235,143.142363 C25.6076393,143.142363 0.781250013,120.486113 0.781250013,75.2604179 C0.781250013,25.4340282 36.1979173,0.520833342 106.944446,0.520833342 C132.899308,0.520833342 157.638892,4.16666674 180.989586,11.371528 L156.163197,44.7916674 C140.27778,41.2326396 123.87153,39.4965284 106.944446,39.4965284 C66.1458344,39.4965284 45.7465285,51.3888897 45.7465285,75.1736124 Z" id="Shape" fill="#C4C4C4"></path>
            </g>
        </g>
    </g>
</svg>